<?xml version="1.0" standalone="no"?>
<!DOCTYPE svg PUBLIC "-//W3C//DTD SVG 20010904//EN"
 "http://www.w3.org/TR/2001/REC-SVG-20010904/DTD/svg10.dtd">
<svg version="1.0" xmlns="http://www.w3.org/2000/svg"
 width="1828.000000pt" height="3201.000000pt" viewBox="0 0 1828.000000 3201.000000"
 preserveAspectRatio="xMidYMid meet">
<metadata>
Created by potrace 1.15, written by Peter Selinger 2001-2017
</metadata>
<g transform="translate(0.000000,3201.000000) scale(0.100000,-0.100000)"
fill="#000000" stroke="none">
<path d="M11567 26750 c-15 -12 -29 -36 -33 -55 -3 -20 -12 -35 -20 -35 -8 0
-14 -7 -14 -15 0 -8 7 -15 15 -15 12 0 15 -19 15 -115 0 -108 1 -115 20 -115
19 0 20 7 20 115 l0 115 35 0 c24 0 35 5 35 15 0 10 -11 15 -35 15 -37 0 -44
14 -25 51 8 13 21 19 45 19 23 0 35 5 35 14 0 31 -57 34 -93 6z"/>
<path d="M4430 26580 c0 -153 2 -180 15 -180 8 0 15 9 15 20 0 11 3 20 6 20 3
0 17 -9 31 -20 51 -40 138 -18 167 44 29 62 13 146 -35 180 -37 25 -105 21
-134 -9 l-25 -24 0 74 c0 68 -2 75 -20 75 -19 0 -20 -7 -20 -180z m161 40 c22
-13 49 -61 49 -90 0 -36 -28 -77 -61 -90 -28 -12 -36 -11 -68 6 -34 18 -36 22
-39 75 -3 53 -1 58 28 83 34 28 59 32 91 16z"/>
<path d="M6080 26580 c0 -173 1 -180 20 -180 19 0 20 7 20 89 0 87 1 90 31
115 37 31 62 33 89 6 17 -17 20 -33 20 -115 0 -90 1 -95 21 -95 20 0 21 4 17
109 -4 126 -16 151 -75 151 -37 0 -88 -22 -96 -42 -3 -7 -6 22 -6 65 -1 70 -3
77 -21 77 -19 0 -20 -7 -20 -180z"/>
<path d="M9370 26689 l0 -70 -26 20 c-32 25 -99 28 -130 6 -12 -8 -29 -30 -38
-49 -58 -122 60 -244 171 -177 31 19 31 19 36 0 3 -11 14 -19 27 -19 20 0 22
4 16 31 -3 17 -6 98 -6 180 l0 149 -25 0 c-24 0 -25 -2 -25 -71z m-41 -74 c35
-17 41 -32 41 -95 0 -41 -4 -52 -26 -69 -46 -36 -102 -20 -129 36 -20 43 -12
88 23 120 29 27 52 29 91 8z"/>
<path d="M11020 26689 l0 -70 -26 20 c-32 25 -99 28 -130 6 -12 -8 -29 -30
-38 -49 -58 -122 60 -244 171 -177 31 19 31 19 36 0 3 -11 14 -19 27 -19 20 0
22 4 16 31 -3 17 -6 98 -6 180 l0 149 -25 0 c-24 0 -25 -2 -25 -71z m-41 -74
c35 -17 41 -32 41 -95 0 -41 -4 -52 -26 -69 -46 -36 -102 -20 -129 36 -20 43
-12 88 23 120 29 27 52 29 91 8z"/>
<path d="M3670 26575 l0 -175 120 0 c113 0 120 1 120 20 0 19 -7 20 -95 20
l-95 0 0 60 0 60 80 0 c73 0 80 2 80 20 0 18 -7 20 -80 20 l-80 0 0 60 0 60
95 0 c78 0 95 3 95 15 0 13 -20 15 -120 15 l-120 0 0 -175z"/>
<path d="M5910 26705 c0 -38 -3 -45 -20 -45 -11 0 -20 -7 -20 -15 0 -8 9 -15
20 -15 19 0 20 -7 20 -99 0 -112 9 -131 63 -131 66 0 76 35 12 42 l-30 3 -3
93 -3 92 31 0 c20 0 30 5 30 15 0 10 -10 15 -30 15 -29 0 -30 2 -30 45 0 38
-3 45 -20 45 -17 0 -20 -7 -20 -45z"/>
<path d="M12870 26705 c0 -38 -3 -45 -20 -45 -11 0 -20 -7 -20 -15 0 -8 9 -15
20 -15 19 0 20 -7 20 -99 0 -112 9 -131 63 -131 66 0 76 35 12 42 l-30 3 -3
93 -3 92 31 0 c20 0 30 5 30 15 0 10 -10 15 -30 15 -29 0 -30 2 -30 45 0 38
-3 45 -20 45 -17 0 -20 -7 -20 -45z"/>
<path d="M3970 26530 c0 -123 1 -130 20 -130 19 0 20 7 20 89 0 87 1 90 31
115 68 58 99 23 99 -111 0 -86 1 -93 20 -93 18 0 20 7 20 86 0 81 1 87 29 115
68 68 111 21 111 -122 0 -74 1 -79 21 -79 21 0 21 4 17 109 -3 90 -7 113 -22
130 -27 30 -86 28 -123 -3 l-28 -24 -22 24 c-31 34 -91 33 -132 -2 l-31 -26 0
26 c0 16 -6 26 -15 26 -13 0 -15 -21 -15 -130z"/>
<path d="M4953 26648 c-28 -13 -32 -44 -5 -32 9 4 38 9 63 12 40 3 49 0 63
-19 32 -46 22 -58 -44 -56 -74 2 -113 -22 -118 -73 -7 -71 80 -105 153 -60
l33 20 5 -20 c3 -11 13 -20 22 -20 14 0 16 6 11 31 -3 17 -6 63 -6 101 0 64
-3 72 -29 99 -25 24 -37 29 -78 28 -26 0 -58 -5 -70 -11z"/>
<path d="M5224 26627 c-62 -57 -57 -152 12 -206 40 -32 113 -29 154 6 28 23
30 27 15 36 -11 6 -22 4 -33 -6 -44 -39 -111 -27 -137 24 -19 36 -19 63 0 99
27 52 84 66 123 30 15 -14 27 -18 43 -12 21 8 20 9 -11 35 -25 21 -42 27 -81
27 -42 0 -55 -5 -85 -33z"/>
<path d="M5516 26639 c-102 -80 -54 -239 73 -239 43 0 85 18 103 44 14 20 -16
24 -40 5 -49 -38 -136 -10 -144 46 -3 19 3 20 106 23 l109 3 -6 37 c-4 25 -18
48 -42 70 -29 27 -42 32 -84 32 -34 0 -56 -6 -75 -21z"/>
<path d="M6406 26639 c-102 -80 -54 -239 73 -239 43 0 85 18 103 44 14 20 -16
24 -40 5 -49 -38 -136 -10 -144 46 -3 19 3 20 106 23 l109 3 -6 37 c-4 25 -18
48 -42 70 -29 27 -42 32 -84 32 -34 0 -56 -6 -75 -21z"/>
<path d="M6826 26639 c-102 -80 -54 -239 73 -239 43 0 85 18 103 44 14 20 -16
24 -40 5 -49 -38 -136 -10 -144 46 -3 19 3 20 106 23 l109 3 -6 37 c-4 25 -18
48 -42 70 -29 27 -42 32 -84 32 -34 0 -56 -6 -75 -21z"/>
<path d="M7090 26530 c0 -123 1 -130 20 -130 19 0 20 7 20 89 0 87 1 90 31
115 68 58 99 23 99 -111 0 -86 1 -93 20 -93 18 0 20 7 20 86 0 81 1 87 29 115
68 68 111 21 111 -122 0 -74 1 -79 21 -79 21 0 21 4 17 109 -3 90 -7 113 -22
130 -27 30 -86 28 -123 -3 l-28 -24 -22 24 c-31 34 -91 33 -132 -2 l-31 -26 0
26 c0 16 -6 26 -15 26 -13 0 -15 -21 -15 -130z"/>
<path d="M7586 26639 c-102 -80 -54 -239 73 -239 43 0 85 18 103 44 14 20 -16
24 -40 5 -49 -38 -136 -10 -144 46 -3 19 3 20 106 23 l109 3 -6 37 c-4 25 -18
48 -42 70 -29 27 -42 32 -84 32 -34 0 -56 -6 -75 -21z"/>
<path d="M8059 26645 c-31 -17 -59 -71 -59 -115 0 -99 111 -166 184 -109 l26
20 0 -39 c0 -71 -76 -104 -146 -63 -45 27 -64 14 -29 -19 38 -35 119 -39 165
-8 48 33 59 72 59 221 1 121 0 127 -19 127 -15 0 -20 -7 -20 -26 l0 -26 -31
26 c-35 30 -88 34 -130 11z m110 -30 c35 -17 41 -32 41 -95 0 -41 -4 -52 -26
-69 -31 -25 -55 -26 -93 -6 -41 20 -57 66 -42 115 19 64 64 85 120 55z"/>
<path d="M8450 26530 c0 -123 1 -130 20 -130 18 0 20 7 20 84 0 74 3 88 23
110 32 36 70 43 96 17 18 -18 21 -33 21 -116 0 -88 1 -95 20 -95 19 0 20 7 20
104 0 89 -3 107 -21 130 -27 35 -82 36 -133 1 l-36 -24 0 24 c0 16 -6 25 -15
25 -13 0 -15 -21 -15 -130z"/>
<path d="M8789 26645 c-31 -17 -59 -71 -59 -115 0 -99 111 -166 184 -109 l26
20 0 -39 c0 -71 -76 -104 -146 -63 -45 27 -64 14 -29 -19 38 -35 119 -39 165
-8 48 33 59 72 59 221 1 121 0 127 -19 127 -15 0 -20 -7 -20 -26 l0 -26 -31
26 c-35 30 -88 34 -130 11z m110 -30 c35 -17 41 -32 41 -95 0 -41 -4 -52 -26
-69 -31 -25 -55 -26 -93 -6 -41 20 -57 66 -42 115 19 64 64 85 120 55z"/>
<path d="M9536 26639 c-102 -80 -54 -239 73 -239 43 0 85 18 103 44 14 20 -16
24 -40 5 -49 -38 -136 -10 -144 46 -3 19 3 20 106 23 l109 3 -6 37 c-4 25 -18
48 -42 70 -29 27 -42 32 -84 32 -34 0 -56 -6 -75 -21z"/>
<path d="M9790 26530 c0 -123 1 -130 20 -130 19 0 20 7 20 89 0 87 1 90 31
115 68 58 99 23 99 -111 0 -86 1 -93 20 -93 18 0 20 7 20 86 0 81 1 87 29 115
68 68 111 21 111 -122 0 -74 1 -79 21 -79 21 0 21 4 17 109 -3 90 -7 113 -22
130 -27 30 -86 28 -123 -3 l-28 -24 -22 24 c-31 34 -91 33 -132 -2 l-31 -26 0
26 c0 16 -6 26 -15 26 -13 0 -15 -21 -15 -130z"/>
<path d="M10283 26648 c-28 -13 -32 -44 -5 -32 9 4 38 9 63 12 40 3 49 0 63
-19 32 -46 22 -58 -44 -56 -74 2 -113 -22 -118 -73 -7 -71 80 -105 153 -60
l33 20 5 -20 c3 -11 13 -20 22 -20 14 0 16 6 11 31 -3 17 -6 63 -6 101 0 64
-3 72 -29 99 -25 24 -37 29 -78 28 -26 0 -58 -5 -70 -11z"/>
<path d="M10530 26530 c0 -123 1 -130 20 -130 18 0 20 7 20 84 0 74 3 88 23
110 32 36 70 43 96 17 18 -18 21 -33 21 -116 0 -88 1 -95 20 -95 19 0 20 7 20
104 0 89 -3 107 -21 130 -27 35 -82 36 -133 1 l-36 -24 0 24 c0 16 -6 25 -15
25 -13 0 -15 -21 -15 -130z"/>
<path d="M11156 26639 c-22 -17 -27 -28 -24 -58 3 -35 4 -36 78 -61 77 -26 95
-45 70 -75 -16 -19 -83 -19 -120 0 -20 10 -31 12 -36 4 -14 -23 25 -43 90 -47
59 -4 67 -2 90 21 50 50 21 106 -61 122 -59 11 -75 23 -71 53 3 25 6 27 53 26
28 -1 59 -3 69 -5 29 -6 30 16 1 29 -42 19 -109 15 -139 -9z"/>
<path d="M11716 26639 c-103 -81 -54 -239 74 -239 33 0 55 6 74 21 103 81 54
239 -74 239 -33 0 -55 -6 -74 -21z m120 -27 c63 -50 54 -143 -16 -172 -74 -31
-147 58 -109 133 17 32 51 57 79 57 14 0 35 -8 46 -18z"/>
<path d="M12316 26639 c-102 -80 -54 -239 73 -239 43 0 85 18 103 44 14 20
-16 24 -40 5 -49 -38 -136 -10 -144 46 -3 19 3 20 106 23 l109 3 -6 37 c-4 25
-18 48 -42 70 -29 27 -42 32 -84 32 -34 0 -56 -6 -75 -21z"/>
<path d="M12570 26530 c0 -123 1 -130 20 -130 18 0 20 7 20 84 0 74 3 88 23
110 32 36 70 43 96 17 18 -18 21 -33 21 -116 0 -88 1 -95 20 -95 19 0 20 7 20
104 0 89 -3 107 -21 130 -27 35 -82 36 -133 1 l-36 -24 0 24 c0 16 -6 25 -15
25 -13 0 -15 -21 -15 -130z"/>
<path d="M13076 26639 c-102 -80 -54 -239 73 -239 43 0 85 18 103 44 14 20
-16 24 -40 5 -49 -38 -136 -10 -144 46 -3 19 3 20 106 23 l109 3 -6 37 c-4 25
-18 48 -42 70 -29 27 -42 32 -84 32 -34 0 -56 -6 -75 -21z"/>
<path d="M13510 26475 c0 -178 1 -185 20 -185 18 0 20 7 20 80 l0 79 25 -24
c29 -30 97 -34 133 -9 50 35 66 116 36 180 -29 62 -116 84 -167 44 -14 -11
-28 -20 -31 -20 -3 0 -6 9 -6 20 0 11 -7 20 -15 20 -13 0 -15 -27 -15 -185z
m155 143 c29 -13 55 -55 55 -88 0 -29 -27 -77 -49 -90 -31 -16 -57 -12 -90 16
-27 23 -31 32 -31 78 0 38 5 57 18 68 33 29 59 33 97 16z"/>
<path d="M14136 26639 c-22 -17 -27 -28 -24 -58 3 -35 4 -36 78 -61 77 -26 95
-45 70 -75 -16 -19 -83 -19 -120 0 -20 10 -31 12 -36 4 -14 -23 25 -43 90 -47
59 -4 67 -2 90 21 50 50 21 106 -61 122 -59 11 -75 23 -71 53 3 25 6 27 53 26
28 -1 59 -3 69 -5 29 -6 30 16 1 29 -42 19 -109 15 -139 -9z"/>
<path d="M14406 26639 c-102 -80 -54 -239 73 -239 43 0 85 18 103 44 14 20
-16 24 -40 5 -49 -38 -136 -10 -144 46 -3 19 3 20 106 23 l109 3 -6 37 c-4 25
-18 48 -42 70 -29 27 -42 32 -84 32 -34 0 -56 -6 -75 -21z"/>
<path d="M6137 26000 c-15 -12 -29 -36 -33 -55 -3 -20 -12 -35 -20 -35 -8 0
-14 -7 -14 -15 0 -8 7 -15 15 -15 12 0 15 -19 15 -115 0 -108 1 -115 20 -115
19 0 20 7 20 115 l0 115 35 0 c24 0 35 5 35 15 0 10 -11 15 -35 15 -37 0 -44
14 -25 51 8 13 21 19 45 19 23 0 35 5 35 14 0 31 -57 34 -93 6z"/>
<path d="M4850 25830 c0 -153 2 -180 15 -180 8 0 15 9 15 20 0 11 3 20 6 20 3
0 17 -9 31 -20 51 -40 138 -18 167 44 29 62 13 146 -35 180 -37 25 -105 21
-134 -9 l-25 -24 0 74 c0 68 -2 75 -20 75 -19 0 -20 -7 -20 -180z m161 40 c22
-13 49 -61 49 -90 0 -36 -28 -77 -61 -90 -28 -12 -36 -11 -68 6 -34 18 -36 22
-39 75 -3 53 -1 58 28 83 34 28 59 32 91 16z"/>
<path d="M5270 25841 c0 -187 3 -195 62 -189 43 4 52 35 11 40 l-28 3 -3 158
c-2 149 -4 157 -22 157 -19 0 -20 -7 -20 -169z"/>
<path d="M9540 25841 c0 -187 3 -195 62 -189 43 4 52 35 11 40 l-28 3 -3 158
c-2 149 -4 157 -22 157 -19 0 -20 -7 -20 -169z"/>
<path d="M11255 25998 c-49 -28 -59 -78 -24 -122 l22 -27 -34 -35 c-25 -26
-33 -43 -33 -70 0 -80 111 -123 191 -75 31 19 31 19 49 0 9 -10 29 -19 43 -19
l25 0 -32 33 -32 33 15 43 c20 57 19 71 -5 71 -14 0 -20 -7 -20 -24 0 -58 -10
-60 -60 -11 l-48 47 34 30 c26 23 34 38 34 63 0 58 -71 94 -125 63z"/>
<path d="M5540 25955 c0 -38 -3 -45 -20 -45 -11 0 -20 -7 -20 -15 0 -8 9 -15
20 -15 19 0 20 -7 20 -99 0 -112 9 -131 63 -131 66 0 76 35 12 42 l-30 3 -3
93 -3 92 31 0 c20 0 30 5 30 15 0 10 -10 15 -30 15 -29 0 -30 2 -30 45 0 38
-3 45 -20 45 -17 0 -20 -7 -20 -45z"/>
<path d="M12500 25955 c0 -38 -3 -45 -20 -45 -11 0 -20 -7 -20 -15 0 -8 9 -15
20 -15 19 0 20 -7 20 -99 0 -112 9 -131 63 -131 66 0 76 35 12 42 l-30 3 -3
93 -3 92 31 0 c20 0 30 5 30 15 0 10 -10 15 -30 15 -29 0 -30 2 -30 45 0 38
-3 45 -20 45 -17 0 -20 -7 -20 -45z"/>
<path d="M4080 25780 c0 -123 1 -130 20 -130 19 0 20 7 20 89 0 87 1 90 31
115 68 58 99 23 99 -111 0 -86 1 -93 20 -93 18 0 20 7 20 86 0 81 1 87 29 115
68 68 111 21 111 -122 0 -74 1 -79 21 -79 21 0 21 4 17 109 -3 90 -7 113 -22
130 -27 30 -86 28 -123 -3 l-28 -24 -22 24 c-31 34 -91 33 -132 -2 l-31 -26 0
26 c0 16 -6 26 -15 26 -13 0 -15 -21 -15 -130z"/>
<path d="M4586 25889 c-103 -81 -54 -239 74 -239 33 0 55 6 74 21 103 81 54
239 -74 239 -33 0 -55 -6 -74 -21z m120 -27 c63 -50 54 -143 -16 -172 -74 -31
-147 58 -109 133 17 32 51 57 79 57 14 0 35 -8 46 -18z"/>
<path d="M5680 25908 c0 -2 25 -61 55 -131 54 -128 54 -128 38 -163 -10 -20
-24 -34 -35 -34 -11 0 -18 -7 -18 -20 0 -23 36 -28 63 -7 9 6 43 82 76 167 32
85 62 163 66 173 5 13 2 17 -13 17 -16 0 -27 -19 -57 -105 -21 -58 -41 -105
-45 -105 -4 0 -25 46 -47 103 -32 80 -45 103 -62 105 -11 2 -21 2 -21 0z"/>
<path d="M6476 25889 c-103 -81 -54 -239 74 -239 33 0 55 6 74 21 103 81 54
239 -74 239 -33 0 -55 -6 -74 -21z m120 -27 c63 -50 54 -143 -16 -172 -74 -31
-147 58 -109 133 17 32 51 57 79 57 14 0 35 -8 46 -18z"/>
<path d="M6740 25780 c0 -123 1 -130 20 -130 19 0 20 7 20 89 0 87 1 90 31
115 68 58 99 23 99 -111 0 -86 1 -93 20 -93 18 0 20 7 20 86 0 81 1 87 29 115
68 68 111 21 111 -122 0 -74 1 -79 21 -79 21 0 21 4 17 109 -3 90 -7 113 -22
130 -27 30 -86 28 -123 -3 l-28 -24 -22 24 c-31 34 -91 33 -132 -2 l-31 -26 0
26 c0 16 -6 26 -15 26 -13 0 -15 -21 -15 -130z"/>
<path d="M7280 25908 c0 -2 25 -61 55 -131 54 -128 54 -128 38 -163 -10 -20
-24 -34 -35 -34 -11 0 -18 -7 -18 -20 0 -23 36 -28 63 -7 9 6 43 82 76 167 32
85 62 163 66 173 5 13 2 17 -13 17 -16 0 -27 -19 -57 -105 -21 -58 -41 -105
-45 -105 -4 0 -25 46 -47 103 -32 80 -45 103 -62 105 -11 2 -21 2 -21 0z"/>
<path d="M7616 25889 c-103 -81 -54 -239 74 -239 33 0 55 6 74 21 103 81 54
239 -74 239 -33 0 -55 -6 -74 -21z m120 -27 c63 -50 54 -143 -16 -172 -74 -31
-147 58 -109 133 17 32 51 57 79 57 14 0 35 -8 46 -18z"/>
<path d="M7870 25833 c1 -95 13 -153 36 -170 29 -21 87 -16 127 11 l36 25 3
-22 c4 -26 48 -38 48 -13 0 8 -4 18 -10 21 -6 4 -10 53 -10 116 0 102 -1 109
-20 109 -18 0 -20 -7 -20 -86 0 -81 -1 -87 -29 -115 -34 -33 -70 -37 -94 -11
-13 15 -17 39 -17 115 0 97 0 97 -25 97 -25 0 -25 -1 -25 -77z"/>
<path d="M8506 25889 c-102 -80 -54 -239 73 -239 43 0 85 18 103 44 14 20 -16
24 -40 5 -49 -38 -136 -10 -144 46 -3 19 3 20 106 23 l109 3 -6 37 c-4 25 -18
48 -42 70 -29 27 -42 32 -84 32 -34 0 -56 -6 -75 -21z"/>
<path d="M8770 25780 c0 -123 1 -130 20 -130 19 0 20 7 20 89 0 87 1 90 31
115 68 58 99 23 99 -111 0 -86 1 -93 20 -93 18 0 20 7 20 86 0 81 1 87 29 115
68 68 111 21 111 -122 0 -74 1 -79 21 -79 21 0 21 4 17 109 -3 90 -7 113 -22
130 -27 30 -86 28 -123 -3 l-28 -24 -22 24 c-31 34 -91 33 -132 -2 l-31 -26 0
26 c0 16 -6 26 -15 26 -13 0 -15 -21 -15 -130z"/>
<path d="M9230 25725 c0 -178 1 -185 20 -185 18 0 20 7 20 80 l0 79 25 -24
c29 -30 97 -34 133 -9 50 35 66 116 36 180 -29 62 -116 84 -167 44 -14 -11
-28 -20 -31 -20 -3 0 -6 9 -6 20 0 11 -7 20 -15 20 -13 0 -15 -27 -15 -185z
m155 143 c29 -13 55 -55 55 -88 0 -29 -27 -77 -49 -90 -31 -16 -57 -12 -90 16
-27 23 -31 32 -31 78 0 38 5 57 18 68 33 29 59 33 97 16z"/>
<path d="M9716 25889 c-103 -81 -54 -239 74 -239 33 0 55 6 74 21 103 81 54
239 -74 239 -33 0 -55 -6 -74 -21z m120 -27 c63 -50 54 -143 -16 -172 -74 -31
-147 58 -109 133 17 32 51 57 79 57 14 0 35 -8 46 -18z"/>
<path d="M9940 25908 c0 -2 25 -61 55 -131 54 -128 54 -128 38 -163 -10 -20
-24 -34 -35 -34 -11 0 -18 -7 -18 -20 0 -23 36 -28 63 -7 9 6 43 82 76 167 32
85 62 163 66 173 5 13 2 17 -13 17 -16 0 -27 -19 -57 -105 -21 -58 -41 -105
-45 -105 -4 0 -25 46 -47 103 -32 80 -45 103 -62 105 -11 2 -21 2 -21 0z"/>
<path d="M10276 25889 c-102 -80 -54 -239 73 -239 43 0 85 18 103 44 14 20
-16 24 -40 5 -49 -38 -136 -10 -144 46 -3 19 3 20 106 23 l109 3 -6 37 c-4 25
-18 48 -42 70 -29 27 -42 32 -84 32 -34 0 -56 -6 -75 -21z"/>
<path d="M10566 25889 c-102 -80 -54 -239 73 -239 43 0 85 18 103 44 14 20
-16 24 -40 5 -49 -38 -136 -10 -144 46 -3 19 3 20 106 23 l109 3 -6 37 c-4 25
-18 48 -42 70 -29 27 -42 32 -84 32 -34 0 -56 -6 -75 -21z"/>
<path d="M10846 25889 c-22 -17 -27 -28 -24 -58 3 -35 4 -36 78 -61 77 -26 95
-45 70 -75 -16 -19 -83 -19 -120 0 -20 10 -31 12 -36 4 -14 -23 25 -43 90 -47
59 -4 67 -2 90 21 50 50 21 106 -61 122 -59 11 -75 23 -71 53 3 25 6 27 53 26
28 -1 59 -3 69 -5 29 -6 30 16 1 29 -42 19 -109 15 -139 -9z"/>
<path d="M11694 25877 c-62 -57 -57 -152 12 -206 40 -32 113 -29 154 6 28 23
30 27 15 36 -11 6 -22 4 -33 -6 -44 -39 -111 -27 -137 24 -19 36 -19 63 0 99
27 52 84 66 123 30 15 -14 27 -18 43 -12 21 8 20 9 -11 35 -25 21 -42 27 -81
27 -42 0 -55 -5 -85 -33z"/>
<path d="M11940 25833 c1 -95 13 -153 36 -170 29 -21 87 -16 127 11 l36 25 3
-22 c4 -26 48 -38 48 -13 0 8 -4 18 -10 21 -6 4 -10 53 -10 116 0 102 -1 109
-20 109 -18 0 -20 -7 -20 -86 0 -81 -1 -87 -29 -115 -34 -33 -70 -37 -94 -11
-13 15 -17 39 -17 115 0 97 0 97 -25 97 -25 0 -25 -1 -25 -77z"/>
<path d="M12266 25889 c-22 -17 -27 -28 -24 -58 3 -35 4 -36 78 -61 77 -26 95
-45 70 -75 -16 -19 -83 -19 -120 0 -20 10 -31 12 -36 4 -14 -23 25 -43 90 -47
59 -4 67 -2 90 21 50 50 21 106 -61 122 -59 11 -75 23 -71 53 3 25 6 27 53 26
28 -1 59 -3 69 -5 29 -6 30 16 1 29 -42 19 -109 15 -139 -9z"/>
<path d="M12706 25889 c-103 -81 -54 -239 74 -239 33 0 55 6 74 21 103 81 54
239 -74 239 -33 0 -55 -6 -74 -21z m120 -27 c63 -50 54 -143 -16 -172 -74 -31
-147 58 -109 133 17 32 51 57 79 57 14 0 35 -8 46 -18z"/>
<path d="M12970 25780 c0 -123 1 -130 20 -130 19 0 20 7 20 89 0 87 1 90 31
115 68 58 99 23 99 -111 0 -86 1 -93 20 -93 18 0 20 7 20 86 0 81 1 87 29 115
68 68 111 21 111 -122 0 -74 1 -79 21 -79 21 0 21 4 17 109 -3 90 -7 113 -22
130 -27 30 -86 28 -123 -3 l-28 -24 -22 24 c-31 34 -91 33 -132 -2 l-31 -26 0
26 c0 16 -6 26 -15 26 -13 0 -15 -21 -15 -130z"/>
<path d="M13466 25889 c-102 -80 -54 -239 73 -239 43 0 85 18 103 44 14 20
-16 24 -40 5 -49 -38 -136 -10 -144 46 -3 19 3 20 106 23 l109 3 -6 37 c-4 25
-18 48 -42 70 -29 27 -42 32 -84 32 -34 0 -56 -6 -75 -21z"/>
<path d="M13916 25889 c-22 -17 -27 -28 -24 -58 3 -35 4 -36 78 -61 77 -26 95
-45 70 -75 -16 -19 -83 -19 -120 0 -20 10 -31 12 -36 4 -14 -23 25 -43 90 -47
59 -4 67 -2 90 21 50 50 21 106 -61 122 -59 11 -75 23 -71 53 3 25 6 27 53 26
28 -1 59 -3 69 -5 29 -6 30 16 1 29 -42 19 -109 15 -139 -9z"/>
<path d="M5550 25091 c0 -187 3 -195 62 -189 43 4 52 35 11 40 l-28 3 -3 158
c-2 149 -4 157 -22 157 -19 0 -20 -7 -20 -169z"/>
<path d="M5690 25091 c0 -187 3 -195 62 -189 43 4 52 35 11 40 l-28 3 -3 158
c-2 149 -4 157 -22 157 -19 0 -20 -7 -20 -169z"/>
<path d="M7440 25189 l0 -70 -26 20 c-32 25 -99 28 -130 6 -12 -8 -29 -30 -38
-49 -58 -122 60 -244 171 -177 31 19 31 19 36 0 3 -11 14 -19 27 -19 20 0 22
4 16 31 -3 17 -6 98 -6 180 l0 149 -25 0 c-24 0 -25 -2 -25 -71z m-41 -74 c35
-17 41 -32 41 -95 0 -41 -4 -52 -26 -69 -46 -36 -102 -20 -129 36 -20 43 -12
88 23 120 29 27 52 29 91 8z"/>
<path d="M11670 25091 c0 -187 3 -195 62 -189 43 4 52 35 11 40 l-28 3 -3 158
c-2 149 -4 157 -22 157 -19 0 -20 -7 -20 -169z"/>
<path d="M4102 25242 c2 -5 34 -84 73 -176 82 -197 89 -202 136 -91 17 39 34
74 38 78 5 4 23 -28 42 -73 48 -117 55 -113 140 89 38 90 69 167 69 172 0 5
-9 9 -19 9 -15 0 -31 -29 -77 -145 -32 -80 -60 -145 -63 -145 -3 0 -19 31 -34
69 l-28 69 22 53 c43 108 41 101 18 97 -15 -2 -27 -18 -41 -55 -11 -29 -23
-53 -27 -53 -4 0 -15 25 -26 55 -13 40 -23 55 -37 55 -23 0 -23 2 7 -72 14
-34 25 -69 25 -79 0 -25 -51 -140 -60 -134 -4 2 -31 68 -61 145 -48 125 -56
140 -77 140 -13 0 -22 -4 -20 -8z"/>
<path d="M6500 25205 c0 -38 -3 -45 -20 -45 -11 0 -20 -7 -20 -15 0 -8 9 -15
20 -15 19 0 20 -7 20 -99 0 -112 9 -131 63 -131 66 0 76 35 12 42 l-30 3 -3
93 -3 92 31 0 c20 0 30 5 30 15 0 10 -10 15 -30 15 -29 0 -30 2 -30 45 0 38
-3 45 -20 45 -17 0 -20 -7 -20 -45z"/>
<path d="M9750 25205 c0 -38 -3 -45 -20 -45 -11 0 -20 -7 -20 -15 0 -8 9 -15
20 -15 19 0 20 -7 20 -99 0 -112 9 -131 63 -131 66 0 76 35 12 42 l-30 3 -3
93 -3 92 31 0 c20 0 30 5 30 15 0 10 -10 15 -30 15 -29 0 -30 2 -30 45 0 38
-3 45 -20 45 -17 0 -20 -7 -20 -45z"/>
<path d="M12490 25205 c0 -38 -3 -45 -20 -45 -11 0 -20 -7 -20 -15 0 -8 9 -15
20 -15 19 0 20 -7 20 -99 0 -112 9 -131 63 -131 66 0 76 35 12 42 l-30 3 -3
93 -3 92 31 0 c20 0 30 5 30 15 0 10 -10 15 -30 15 -29 0 -30 2 -30 45 0 38
-3 45 -20 45 -17 0 -20 -7 -20 -45z"/>
<path d="M13750 25205 c0 -38 -3 -45 -20 -45 -11 0 -20 -7 -20 -15 0 -8 9 -15
20 -15 19 0 20 -7 20 -99 0 -112 9 -131 63 -131 66 0 76 35 12 42 l-30 3 -3
93 -3 92 31 0 c20 0 30 5 30 15 0 10 -10 15 -30 15 -29 0 -30 2 -30 45 0 38
-3 45 -20 45 -17 0 -20 -7 -20 -45z"/>
<path d="M4656 25139 c-102 -80 -54 -239 73 -239 43 0 85 18 103 44 14 20 -16
24 -40 5 -49 -38 -136 -10 -144 46 -3 19 3 20 106 23 l109 3 -6 37 c-4 25 -18
48 -42 70 -29 27 -42 32 -84 32 -34 0 -56 -6 -75 -21z"/>
<path d="M5000 25157 c0 -1 24 -59 53 -127 63 -148 78 -157 113 -70 12 30 25
55 29 55 4 0 17 -25 29 -55 35 -87 50 -78 112 65 29 66 53 123 53 128 1 4 -7
7 -17 7 -14 0 -29 -26 -61 -105 -24 -58 -47 -103 -51 -100 -4 2 -15 25 -25 50
-18 48 -16 58 23 147 2 5 -3 8 -12 8 -8 0 -23 -19 -34 -42 l-18 -42 -17 42
c-10 25 -23 42 -33 42 -9 0 -14 -3 -12 -8 39 -89 41 -99 23 -147 -10 -25 -21
-48 -25 -50 -4 -3 -27 42 -51 100 -32 79 -47 105 -61 105 -10 0 -18 -1 -18 -3z"/>
<path d="M5986 25139 c-102 -80 -54 -239 73 -239 43 0 85 18 103 44 14 20 -16
24 -40 5 -49 -38 -136 -10 -144 46 -3 19 3 20 106 23 l109 3 -6 37 c-4 25 -18
48 -42 70 -29 27 -42 32 -84 32 -34 0 -56 -6 -75 -21z"/>
<path d="M6222 25128 c13 -18 35 -48 48 -65 l24 -33 -24 -32 c-13 -18 -35 -48
-48 -65 -24 -32 -24 -33 -4 -33 12 0 33 17 53 43 18 23 36 46 40 51 4 4 24
-15 45 -43 27 -36 45 -51 62 -51 22 0 20 4 -28 65 l-51 65 45 59 c25 33 46 62
46 65 0 3 -8 6 -18 6 -11 0 -33 -20 -51 -45 -17 -24 -35 -47 -40 -49 -5 -3
-23 17 -42 44 -25 36 -41 50 -58 50 l-23 0 24 -32z"/>
<path d="M6696 25139 c-102 -80 -54 -239 73 -239 43 0 85 18 103 44 14 20 -16
24 -40 5 -49 -38 -136 -10 -144 46 -3 19 3 20 106 23 l109 3 -6 37 c-4 25 -18
48 -42 70 -29 27 -42 32 -84 32 -34 0 -56 -6 -75 -21z"/>
<path d="M6960 25030 c0 -123 1 -130 20 -130 18 0 20 7 20 84 0 74 3 88 23
110 32 36 70 43 96 17 18 -18 21 -33 21 -116 0 -88 1 -95 20 -95 19 0 20 7 20
104 0 89 -3 107 -21 130 -27 35 -82 36 -133 1 l-36 -24 0 24 c0 16 -6 25 -15
25 -13 0 -15 -21 -15 -130z"/>
<path d="M7650 25158 c0 -2 25 -61 55 -131 54 -128 54 -128 38 -163 -10 -20
-24 -34 -35 -34 -11 0 -18 -7 -18 -20 0 -23 36 -28 63 -7 9 6 43 82 76 167 32
85 62 163 66 173 5 13 2 17 -13 17 -16 0 -27 -19 -57 -105 -21 -58 -41 -105
-45 -105 -4 0 -25 46 -47 103 -32 80 -45 103 -62 105 -11 2 -21 2 -21 0z"/>
<path d="M7976 25139 c-103 -81 -54 -239 74 -239 33 0 55 6 74 21 103 81 54
239 -74 239 -33 0 -55 -6 -74 -21z m120 -27 c63 -50 54 -143 -16 -172 -74 -31
-147 58 -109 133 17 32 51 57 79 57 14 0 35 -8 46 -18z"/>
<path d="M8230 25083 c1 -95 13 -153 36 -170 29 -21 87 -16 127 11 l36 25 3
-22 c4 -26 48 -38 48 -13 0 8 -4 18 -10 21 -6 4 -10 53 -10 116 0 102 -1 109
-20 109 -18 0 -20 -7 -20 -86 0 -81 -1 -87 -29 -115 -34 -33 -70 -37 -94 -11
-13 15 -17 39 -17 115 0 97 0 97 -25 97 -25 0 -25 -1 -25 -77z"/>
<path d="M8876 25139 c-102 -80 -54 -239 73 -239 43 0 85 18 103 44 14 20 -16
24 -40 5 -49 -38 -136 -10 -144 46 -3 19 3 20 106 23 l109 3 -6 37 c-4 25 -18
48 -42 70 -29 27 -42 32 -84 32 -34 0 -56 -6 -75 -21z"/>
<path d="M9122 25128 c13 -18 35 -48 48 -65 l24 -33 -24 -32 c-13 -18 -35 -48
-48 -65 -24 -32 -24 -33 -4 -33 12 0 33 17 53 43 18 23 36 46 40 51 4 4 24
-15 45 -43 27 -36 45 -51 62 -51 22 0 20 4 -28 65 l-51 65 45 59 c25 33 46 62
46 65 0 3 -8 6 -18 6 -11 0 -33 -20 -51 -45 -17 -24 -35 -47 -40 -49 -5 -3
-23 17 -42 44 -25 36 -41 50 -58 50 l-23 0 24 -32z"/>
<path d="M9516 25139 c-22 -17 -27 -28 -24 -58 3 -35 4 -36 78 -61 77 -26 95
-45 70 -75 -16 -19 -83 -19 -120 0 -20 10 -31 12 -36 4 -14 -23 25 -43 90 -47
59 -4 67 -2 90 21 50 50 21 106 -61 122 -59 11 -75 23 -71 53 3 25 6 27 53 26
28 -1 59 -3 69 -5 29 -6 30 16 1 29 -42 19 -109 15 -139 -9z"/>
<path d="M10040 25030 c0 -123 1 -130 20 -130 18 0 20 7 20 84 0 74 3 88 23
110 32 36 70 43 96 17 18 -18 21 -33 21 -116 0 -88 1 -95 20 -95 19 0 20 7 20
104 0 89 -3 107 -21 130 -27 35 -82 36 -133 1 l-36 -24 0 24 c0 16 -6 25 -15
25 -13 0 -15 -21 -15 -130z"/>
<path d="M10369 25145 c-31 -17 -59 -71 -59 -115 0 -99 111 -166 184 -109 l26
20 0 -39 c0 -71 -76 -104 -146 -63 -45 27 -64 14 -29 -19 38 -35 119 -39 165
-8 48 33 59 72 59 221 1 121 0 127 -19 127 -15 0 -20 -7 -20 -26 l0 -26 -31
26 c-35 30 -88 34 -130 11z m110 -30 c35 -17 41 -32 41 -95 0 -41 -4 -52 -26
-69 -31 -25 -55 -26 -93 -6 -41 20 -57 66 -42 115 19 64 64 85 120 55z"/>
<path d="M10793 25148 c-28 -13 -32 -44 -5 -32 9 4 38 9 63 12 40 3 49 0 63
-19 32 -46 22 -58 -44 -56 -74 2 -113 -22 -118 -73 -7 -71 80 -105 153 -60
l33 20 5 -20 c3 -11 13 -20 22 -20 14 0 16 6 11 31 -3 17 -6 63 -6 101 0 64
-3 72 -29 99 -25 24 -37 29 -78 28 -26 0 -58 -5 -70 -11z"/>
<path d="M11050 24975 c0 -178 1 -185 20 -185 18 0 20 7 20 80 l0 79 25 -24
c29 -30 97 -34 133 -9 50 35 66 116 36 180 -29 62 -116 84 -167 44 -14 -11
-28 -20 -31 -20 -3 0 -6 9 -6 20 0 11 -7 20 -15 20 -13 0 -15 -27 -15 -185z
m155 143 c29 -13 55 -55 55 -88 0 -29 -27 -77 -49 -90 -31 -16 -57 -12 -90 16
-27 23 -31 32 -31 78 0 38 5 57 18 68 33 29 59 33 97 16z"/>
<path d="M11360 24975 c0 -178 1 -185 20 -185 18 0 20 7 20 80 l0 79 25 -24
c29 -30 97 -34 133 -9 50 35 66 116 36 180 -29 62 -116 84 -167 44 -14 -11
-28 -20 -31 -20 -3 0 -6 9 -6 20 0 11 -7 20 -15 20 -13 0 -15 -27 -15 -185z
m155 143 c29 -13 55 -55 55 -88 0 -29 -27 -77 -49 -90 -31 -16 -57 -12 -90 16
-27 23 -31 32 -31 78 0 38 5 57 18 68 33 29 59 33 97 16z"/>
<path d="M11954 25127 c-62 -57 -57 -152 12 -206 40 -32 113 -29 154 6 28 23
30 27 15 36 -11 6 -22 4 -33 -6 -44 -39 -111 -27 -137 24 -19 36 -19 63 0 99
27 52 84 66 123 30 15 -14 27 -18 43 -12 21 8 20 9 -11 35 -25 21 -42 27 -81
27 -42 0 -55 -5 -85 -33z"/>
<path d="M12223 25148 c-28 -13 -32 -44 -5 -32 9 4 38 9 63 12 40 3 49 0 63
-19 32 -46 22 -58 -44 -56 -74 2 -113 -22 -118 -73 -7 -71 80 -105 153 -60
l33 20 5 -20 c3 -11 13 -20 22 -20 14 0 16 6 11 31 -3 17 -6 63 -6 101 0 64
-3 72 -29 99 -25 24 -37 29 -78 28 -26 0 -58 -5 -70 -11z"/>
<path d="M12806 25139 c-103 -81 -54 -239 74 -239 33 0 55 6 74 21 103 81 54
239 -74 239 -33 0 -55 -6 -74 -21z m120 -27 c63 -50 54 -143 -16 -172 -74 -31
-147 58 -109 133 17 32 51 57 79 57 14 0 35 -8 46 -18z"/>
<path d="M13070 25030 c0 -123 1 -130 20 -130 18 0 20 7 20 84 0 74 3 88 23
110 32 36 70 43 96 17 18 -18 21 -33 21 -116 0 -88 1 -95 20 -95 19 0 20 7 20
104 0 89 -3 107 -21 130 -27 35 -82 36 -133 1 l-36 -24 0 24 c0 16 -6 25 -15
25 -13 0 -15 -21 -15 -130z"/>
<path d="M13376 25139 c-22 -17 -27 -28 -24 -58 3 -35 4 -36 78 -61 77 -26 95
-45 70 -75 -16 -19 -83 -19 -120 0 -20 10 -31 12 -36 4 -14 -23 25 -43 90 -47
59 -4 67 -2 90 21 50 50 21 106 -61 122 -59 11 -75 23 -71 53 3 25 6 27 53 26
28 -1 59 -3 69 -5 29 -6 30 16 1 29 -42 19 -109 15 -139 -9z"/>
<path d="M13946 25139 c-103 -81 -54 -239 74 -239 33 0 55 6 74 21 103 81 54
239 -74 239 -33 0 -55 -6 -74 -21z m120 -27 c63 -50 54 -143 -16 -172 -74 -31
-147 58 -109 133 17 32 51 57 79 57 14 0 35 -8 46 -18z"/>
<path d="M6780 24330 c0 -173 1 -180 20 -180 17 0 20 7 20 43 0 33 6 49 24 66
l24 23 47 -66 c30 -43 54 -66 66 -66 23 0 23 0 -39 88 l-44 63 48 52 c41 43
46 52 30 55 -12 3 -41 -18 -87 -64 l-69 -68 0 117 c0 110 -1 117 -20 117 -19
0 -20 -7 -20 -180z"/>
<path d="M10200 24330 c0 -153 2 -180 15 -180 8 0 15 9 15 20 0 11 3 20 6 20
3 0 17 -9 31 -20 51 -40 138 -18 167 44 29 62 13 146 -35 180 -37 25 -105 21
-134 -9 l-25 -24 0 74 c0 68 -2 75 -20 75 -19 0 -20 -7 -20 -180z m161 40 c22
-13 49 -61 49 -90 0 -36 -28 -77 -61 -90 -28 -12 -36 -11 -68 6 -34 18 -36 22
-39 75 -3 53 -1 58 28 83 34 28 59 32 91 16z"/>
<path d="M10630 24341 c0 -187 3 -195 62 -189 43 4 52 35 11 40 l-28 3 -3 158
c-2 149 -4 157 -22 157 -19 0 -20 -7 -20 -169z"/>
<path d="M8480 24455 c0 -38 -3 -45 -20 -45 -11 0 -20 -7 -20 -15 0 -8 9 -15
20 -15 19 0 20 -7 20 -99 0 -112 9 -131 63 -131 66 0 76 35 12 42 l-30 3 -3
93 -3 92 31 0 c20 0 30 5 30 15 0 10 -10 15 -30 15 -29 0 -30 2 -30 45 0 38
-3 45 -20 45 -17 0 -20 -7 -20 -45z"/>
<path d="M5870 24407 c0 -1 24 -59 53 -127 63 -148 78 -157 113 -70 12 30 25
55 29 55 4 0 17 -25 29 -55 35 -87 50 -78 112 65 29 66 53 123 53 128 1 4 -7
7 -17 7 -14 0 -29 -26 -61 -105 -24 -58 -47 -103 -51 -100 -4 2 -15 25 -25 50
-18 48 -16 58 23 147 2 5 -3 8 -12 8 -8 0 -23 -19 -34 -42 l-18 -42 -17 42
c-10 25 -23 42 -33 42 -9 0 -14 -3 -12 -8 39 -89 41 -99 23 -147 -10 -25 -21
-48 -25 -50 -4 -3 -27 42 -51 100 -32 79 -47 105 -61 105 -10 0 -18 -1 -18 -3z"/>
<path d="M6336 24389 c-103 -81 -54 -239 74 -239 33 0 55 6 74 21 103 81 54
239 -74 239 -33 0 -55 -6 -74 -21z m120 -27 c63 -50 54 -143 -16 -172 -74 -31
-147 58 -109 133 17 32 51 57 79 57 14 0 35 -8 46 -18z"/>
<path d="M7216 24389 c-103 -81 -54 -239 74 -239 33 0 55 6 74 21 103 81 54
239 -74 239 -33 0 -55 -6 -74 -21z m120 -27 c63 -50 54 -143 -16 -172 -74 -31
-147 58 -109 133 17 32 51 57 79 57 14 0 35 -8 46 -18z"/>
<path d="M7470 24280 c0 -123 1 -130 20 -130 18 0 20 7 20 84 0 74 3 88 23
110 32 36 70 43 96 17 18 -18 21 -33 21 -116 0 -88 1 -95 20 -95 19 0 20 7 20
104 0 89 -3 107 -21 130 -27 35 -82 36 -133 1 l-36 -24 0 24 c0 16 -6 25 -15
25 -13 0 -15 -21 -15 -130z"/>
<path d="M7900 24280 c0 -123 1 -130 20 -130 18 0 20 7 20 84 0 74 3 88 23
110 32 36 70 43 96 17 18 -18 21 -33 21 -116 0 -88 1 -95 20 -95 19 0 20 7 20
104 0 89 -3 107 -21 130 -27 35 -82 36 -133 1 l-36 -24 0 24 c0 16 -6 25 -15
25 -13 0 -15 -21 -15 -130z"/>
<path d="M8213 24398 c-28 -13 -32 -44 -5 -32 9 4 38 9 63 12 40 3 49 0 63
-19 32 -46 22 -58 -44 -56 -74 2 -113 -22 -118 -73 -7 -71 80 -105 153 -60
l33 20 5 -20 c3 -11 13 -20 22 -20 14 0 16 6 11 31 -3 17 -6 63 -6 101 0 64
-3 72 -29 99 -25 24 -37 29 -78 28 -26 0 -58 -5 -70 -11z"/>
<path d="M8751 24358 c12 -29 35 -88 52 -130 25 -64 34 -78 52 -78 18 0 27 14
52 78 17 42 40 101 52 130 l21 53 -21 -3 c-17 -2 -29 -23 -59 -106 -21 -57
-40 -106 -43 -108 -2 -3 -22 44 -43 103 -33 90 -43 109 -62 111 l-22 3 21 -53z"/>
<path d="M9056 24389 c-102 -80 -54 -239 73 -239 43 0 85 18 103 44 14 20 -16
24 -40 5 -49 -38 -136 -10 -144 46 -3 19 3 20 106 23 l109 3 -6 37 c-4 25 -18
48 -42 70 -29 27 -42 32 -84 32 -34 0 -56 -6 -75 -21z"/>
<path d="M9440 24280 c0 -123 1 -130 20 -130 19 0 20 7 20 89 0 87 1 90 31
115 68 58 99 23 99 -111 0 -86 1 -93 20 -93 18 0 20 7 20 86 0 81 1 87 29 115
68 68 111 21 111 -122 0 -74 1 -79 21 -79 21 0 21 4 17 109 -3 90 -7 113 -22
130 -27 30 -86 28 -123 -3 l-28 -24 -22 24 c-31 34 -91 33 -132 -2 l-31 -26 0
26 c0 16 -6 26 -15 26 -13 0 -15 -21 -15 -130z"/>
<path d="M9936 24389 c-103 -81 -54 -239 74 -239 33 0 55 6 74 21 103 81 54
239 -74 239 -33 0 -55 -6 -74 -21z m120 -27 c63 -50 54 -143 -16 -172 -74 -31
-147 58 -109 133 17 32 51 57 79 57 14 0 35 -8 46 -18z"/>
<path d="M10806 24389 c-102 -80 -54 -239 73 -239 43 0 85 18 103 44 14 20
-16 24 -40 5 -49 -38 -136 -10 -144 46 -3 19 3 20 106 23 l109 3 -6 37 c-4 25
-18 48 -42 70 -29 27 -42 32 -84 32 -34 0 -56 -6 -75 -21z"/>
<path d="M11213 24398 c-28 -13 -32 -44 -5 -32 9 4 38 9 63 12 40 3 49 0 63
-19 32 -46 22 -58 -44 -56 -74 2 -113 -22 -118 -73 -7 -71 80 -105 153 -60
l33 20 5 -20 c3 -11 13 -20 22 -20 14 0 16 6 11 31 -3 17 -6 63 -6 101 0 64
-3 72 -29 99 -25 24 -37 29 -78 28 -26 0 -58 -5 -70 -11z"/>
<path d="M11470 24225 c0 -178 1 -185 20 -185 18 0 20 7 20 80 l0 79 25 -24
c29 -30 97 -34 133 -9 50 35 66 116 36 180 -29 62 -116 84 -167 44 -14 -11
-28 -20 -31 -20 -3 0 -6 9 -6 20 0 11 -7 20 -15 20 -13 0 -15 -27 -15 -185z
m155 143 c29 -13 55 -55 55 -88 0 -29 -27 -77 -49 -90 -31 -16 -57 -12 -90 16
-27 23 -31 32 -31 78 0 38 5 57 18 68 33 29 59 33 97 16z"/>
<path d="M11780 24225 c0 -178 1 -185 20 -185 18 0 20 7 20 80 l0 79 25 -24
c29 -30 97 -34 133 -9 50 35 66 116 36 180 -29 62 -116 84 -167 44 -14 -11
-28 -20 -31 -20 -3 0 -6 9 -6 20 0 11 -7 20 -15 20 -13 0 -15 -27 -15 -185z
m155 143 c29 -13 55 -55 55 -88 0 -29 -27 -77 -49 -90 -31 -16 -57 -12 -90 16
-27 23 -31 32 -31 78 0 38 5 57 18 68 33 29 59 33 97 16z"/>
<path d="M12106 24389 c-22 -17 -27 -28 -24 -58 3 -35 4 -36 78 -61 77 -26 95
-45 70 -75 -16 -19 -83 -19 -120 0 -20 10 -31 12 -36 4 -14 -23 25 -43 90 -47
59 -4 67 -2 90 21 50 50 21 106 -61 122 -59 11 -75 23 -71 53 3 25 6 27 53 26
28 -1 59 -3 69 -5 29 -6 30 16 1 29 -42 19 -109 15 -139 -9z"/>
<path d="M7850 19810 c0 -153 2 -180 15 -180 13 0 15 23 15 147 l0 147 64
-109 c35 -61 69 -110 76 -110 7 0 40 48 74 107 l61 107 3 -145 c2 -119 5 -144
17 -144 13 0 15 28 15 181 0 222 -4 224 -99 57 -36 -65 -69 -118 -72 -118 -3
0 -36 54 -73 120 -37 67 -74 120 -82 120 -12 0 -14 -30 -14 -180z"/>
<path d="M8364 19971 c-136 -62 -129 -273 10 -326 111 -43 216 38 216 166 0
71 -37 134 -93 160 -53 23 -81 23 -133 0z m136 -37 c41 -35 60 -74 60 -124 0
-78 -61 -150 -128 -150 -76 0 -132 64 -132 150 0 121 117 193 200 124z"/>
<path d="M8660 19810 l0 -180 90 0 c128 0 170 25 170 100 0 21 -9 41 -28 60
-27 27 -28 28 -10 50 27 33 24 95 -7 125 -22 23 -32 25 -120 25 l-95 0 0 -180z
m192 133 c22 -20 23 -70 1 -95 -13 -14 -31 -18 -90 -18 l-73 0 0 65 0 65 72 0
c52 0 76 -4 90 -17z m17 -169 c12 -15 21 -34 21 -44 0 -10 -9 -29 -21 -44 -19
-24 -26 -26 -100 -26 l-79 0 0 70 0 70 79 0 c74 0 81 -2 100 -26z"/>
<path d="M9120 19810 l0 -180 115 0 c96 0 115 3 115 15 0 12 -18 15 -100 15
l-100 0 0 165 c0 140 -2 165 -15 165 -13 0 -15 -27 -15 -180z"/>
<path d="M9500 19975 c0 -12 14 -15 65 -15 l65 0 0 -165 c0 -140 2 -165 15
-165 13 0 15 25 15 165 l0 165 65 0 c51 0 65 3 65 15 0 13 -23 15 -145 15
-122 0 -145 -2 -145 -15z"/>
<path d="M9810 19986 c0 -3 29 -53 65 -111 64 -103 65 -106 65 -175 0 -56 3
-70 15 -70 12 0 15 14 15 63 0 65 1 68 122 265 19 30 19 32 1 32 -12 0 -35
-30 -73 -95 -30 -52 -59 -94 -63 -92 -4 1 -31 43 -60 92 -29 49 -60 91 -70 93
-9 2 -17 1 -17 -2z"/>
<path d="M4531 18796 c-67 -68 -72 -76 -60 -93 29 -41 217 -233 228 -233 23 0
9 27 -39 75 -27 27 -50 54 -50 59 0 6 26 34 58 62 40 37 54 55 47 63 -8 8 -27
-5 -65 -44 -30 -30 -58 -55 -63 -55 -5 0 -28 21 -51 46 l-41 46 67 66 c38 36
68 69 68 74 0 23 -32 1 -99 -66z"/>
<path d="M4321 18582 c-70 -35 -99 -110 -75 -191 40 -136 208 -177 297 -72 87
104 -7 281 -150 281 -21 0 -53 -8 -72 -18z m150 -35 c37 -24 79 -97 79 -135 0
-37 -28 -86 -59 -105 -110 -65 -261 57 -221 179 27 80 127 111 201 61z"/>
<path d="M13335 18460 l-120 -120 70 -70 c89 -89 127 -100 176 -51 25 26 30
38 27 65 -4 33 -2 34 33 40 45 7 79 46 79 90 0 26 -13 44 -68 99 -37 37 -70
67 -72 67 -3 0 -59 -54 -125 -120z m189 30 c51 -55 58 -88 26 -120 -34 -34
-69 -26 -127 32 l-53 52 42 43 c23 24 47 43 54 43 6 0 32 -22 58 -50z m-111
-119 c32 -33 57 -65 57 -71 0 -20 -29 -67 -45 -74 -9 -3 -25 -6 -35 -6 -20 0
-130 95 -130 113 0 12 80 97 91 97 3 0 31 -27 62 -59z"/>
<path d="M3953 18248 c-54 -50 -100 -93 -102 -94 -1 -2 0 -8 4 -14 4 -6 24 5
53 30 l47 41 112 -118 c86 -90 115 -115 124 -106 9 9 -15 40 -100 129 l-111
118 46 47 c27 27 42 49 35 53 -5 4 -54 -35 -108 -86z"/>
<path d="M13695 18195 c-46 -25 -66 -46 -86 -90 -22 -48 -24 -106 -4 -144 20
-39 72 -81 99 -81 30 0 39 -10 24 -27 -7 -9 -8 -17 -2 -23 6 -6 32 12 69 50
l60 60 -37 37 c-43 42 -65 37 -25 -5 l27 -28 -23 -22 c-44 -41 -132 -20 -162
38 -51 98 26 220 138 220 76 0 115 -35 126 -113 7 -45 25 -53 29 -13 5 39 -13
77 -54 117 -29 28 -42 33 -91 36 -40 3 -67 -1 -88 -12z"/>
<path d="M3731 18036 c-67 -68 -72 -76 -60 -93 25 -36 216 -233 225 -233 17 0
166 157 156 164 -5 3 -42 -24 -82 -61 l-72 -66 -49 50 -50 50 65 61 c38 35 61
64 55 68 -10 6 -27 -6 -101 -75 l-37 -34 -43 48 -43 47 67 66 c38 36 68 69 68
74 0 23 -32 1 -99 -66z"/>
<path d="M14005 17790 l-120 -120 55 -55 c69 -70 124 -93 181 -76 56 17 126
83 139 132 18 66 4 107 -63 177 -33 34 -63 62 -66 62 -4 0 -60 -54 -126 -120z
m187 28 c68 -79 59 -154 -26 -223 -30 -24 -47 -30 -85 -30 -41 0 -55 6 -95 39
-26 21 -50 45 -53 53 -7 18 185 215 206 211 8 -2 32 -24 53 -50z"/>
<path d="M3566 17891 c-9 -14 4 -30 113 -143 41 -43 73 -79 70 -81 -2 -3 -85
8 -184 23 -177 27 -195 28 -195 10 0 -14 220 -244 236 -248 31 -7 10 25 -78
117 -63 66 -87 97 -76 99 9 2 83 -6 164 -17 173 -24 194 -25 194 -8 -1 6 -54
68 -119 136 -80 84 -120 120 -125 112z"/>
<path d="M4574 17861 c-37 -23 -72 -66 -81 -99 -8 -32 21 -90 51 -102 30 -11
54 -5 133 37 36 18 71 33 79 33 21 0 54 -37 54 -60 0 -34 -68 -100 -117 -113
-41 -11 -61 -37 -28 -37 49 0 133 58 161 112 20 39 17 62 -12 97 -34 41 -70
40 -151 -4 -35 -19 -74 -35 -87 -35 -28 0 -56 29 -56 58 0 30 55 89 95 102 19
6 35 16 35 21 0 15 -43 10 -76 -10z"/>
<path d="M4332 17630 c-61 -37 -91 -111 -72 -179 21 -79 101 -140 183 -141 69
0 134 51 143 112 7 43 10 45 35 22 9 -8 19 -11 23 -6 3 5 -21 37 -54 73 l-58
64 -38 -37 c-21 -21 -35 -41 -31 -44 4 -4 20 5 35 19 l28 27 22 -23 c26 -28
29 -77 6 -117 -59 -98 -215 -72 -259 44 -34 88 11 165 102 176 25 3 48 11 51
18 6 20 -78 15 -116 -8z"/>
<path d="M3245 17581 c-16 -10 -50 -39 -74 -64 -39 -41 -42 -47 -30 -65 29
-40 217 -232 228 -232 22 0 10 25 -31 67 l-42 43 38 39 38 39 67 -19 c37 -11
77 -17 91 -13 24 6 24 7 5 15 -11 4 -46 16 -78 24 l-57 16 6 38 c8 51 -17 98
-61 117 -45 19 -64 18 -100 -5z m106 -40 c44 -45 39 -75 -23 -138 l-53 -54
-56 62 -55 63 53 48 c63 57 92 61 134 19z"/>
<path d="M14273 17516 c-131 -54 -169 -74 -161 -83 8 -10 18 -9 46 4 68 29 73
28 131 -31 l54 -55 -21 -55 c-17 -45 -18 -57 -8 -65 10 -9 15 -7 19 6 3 10 34
89 70 175 46 112 62 160 53 166 -7 6 -75 -18 -183 -62z"/>
<path d="M14557 17473 c-4 -5 12 -27 33 -48 22 -22 40 -44 40 -50 0 -6 -49
-60 -110 -120 -73 -73 -106 -113 -100 -119 7 -7 49 28 125 104 l115 114 45
-44 c24 -24 48 -40 52 -36 4 4 -38 52 -94 108 -55 55 -103 96 -106 91z"/>
<path d="M4126 17441 c-9 -14 4 -30 113 -143 41 -43 73 -79 70 -81 -2 -3 -85
8 -184 23 -177 27 -195 28 -195 10 0 -14 220 -244 236 -248 31 -7 10 25 -78
117 -63 66 -87 97 -76 99 9 2 83 -6 164 -17 173 -24 194 -25 194 -8 -1 6 -54
68 -119 136 -80 84 -120 120 -125 112z"/>
<path d="M2981 17336 c-67 -68 -72 -76 -60 -93 25 -36 216 -233 225 -233 17 0
166 157 156 164 -5 3 -42 -24 -82 -61 l-72 -66 -49 50 -50 50 65 61 c38 35 61
64 55 68 -10 6 -27 -6 -101 -75 l-37 -34 -43 48 -43 47 67 66 c38 36 68 69 68
74 0 23 -32 1 -99 -66z"/>
<path d="M2763 17128 c-54 -50 -100 -93 -102 -94 -1 -2 0 -8 4 -14 4 -6 24 5
53 30 l47 41 112 -118 c86 -90 115 -115 124 -106 9 9 -15 40 -100 129 l-111
118 46 47 c27 27 42 49 35 53 -5 4 -54 -35 -108 -86z"/>
<path d="M14683 17116 c-131 -54 -169 -74 -161 -83 8 -10 18 -9 46 4 68 29 73
28 131 -31 l54 -55 -21 -55 c-17 -45 -18 -57 -8 -65 10 -9 15 -7 19 6 3 10 34
89 70 175 46 112 62 160 53 166 -7 6 -75 -18 -183 -62z"/>
<path d="M3752 17087 c-9 -10 0 -24 38 -62 28 -27 50 -54 50 -61 0 -6 -34 -42
-75 -79 l-75 -67 -51 56 c-46 50 -69 62 -69 36 0 -14 220 -244 236 -248 29 -7
12 26 -41 78 l-55 54 33 34 c17 19 53 51 79 73 l46 39 58 -60 c36 -38 61 -57
67 -51 12 12 -3 31 -130 165 -79 84 -103 103 -111 93z"/>
<path d="M2596 16981 c-9 -14 4 -30 113 -143 41 -43 73 -79 70 -81 -2 -3 -85
8 -184 23 -177 27 -195 28 -195 10 0 -14 220 -244 236 -248 31 -7 10 25 -78
117 -63 66 -87 97 -76 99 9 2 83 -6 164 -17 173 -24 194 -25 194 -8 -1 6 -54
68 -119 136 -80 84 -120 120 -125 112z"/>
<path d="M3423 16778 c-54 -50 -100 -93 -102 -94 -1 -2 0 -8 4 -14 4 -6 24 5
53 30 l47 41 112 -118 c86 -90 115 -115 124 -106 9 9 -15 40 -100 129 l-111
118 46 47 c27 27 42 49 35 53 -5 4 -54 -35 -108 -86z"/>
<path d="M15974 14083 c-13 -26 -19 -60 -19 -105 0 -60 3 -71 27 -95 34 -33
89 -37 118 -7 10 10 28 53 39 94 23 82 49 115 85 104 55 -16 74 -99 37 -161
-16 -26 -17 -32 -5 -37 31 -12 60 86 43 147 -14 54 -33 75 -75 83 -54 10 -80
-14 -105 -99 -12 -39 -28 -82 -35 -94 -18 -28 -64 -31 -87 -5 -24 26 -22 112
3 161 18 36 18 51 -1 51 -3 0 -15 -17 -25 -37z"/>
<path d="M16047 13786 c-73 -26 -102 -72 -95 -148 10 -101 73 -137 246 -138
95 0 102 1 102 20 0 19 -7 20 -121 20 -69 0 -130 5 -142 11 -39 20 -57 51 -57
102 0 41 5 53 30 77 34 32 72 40 198 40 75 0 92 3 92 15 0 12 -18 15 -107 15
-64 -1 -123 -6 -146 -14z"/>
<path d="M15950 13395 c0 -12 14 -15 64 -15 l64 0 4 -74 c4 -82 19 -108 74
-132 41 -17 96 -3 124 33 17 21 20 40 20 114 l0 89 -175 0 c-149 0 -175 -2
-175 -15z m330 -80 c0 -57 -3 -69 -25 -90 -32 -33 -89 -34 -122 -3 -20 18 -23
31 -23 90 l0 68 85 0 85 0 0 -65z"/>
<path d="M15950 13085 c0 -12 14 -15 64 -15 l64 0 4 -74 c4 -82 19 -108 74
-132 41 -17 96 -3 124 33 17 21 20 40 20 114 l0 89 -175 0 c-149 0 -175 -2
-175 -15z m330 -80 c0 -57 -3 -69 -25 -90 -32 -33 -89 -34 -122 -3 -20 18 -23
31 -23 90 l0 68 85 0 85 0 0 -65z"/>
<path d="M2112 13053 l-27 -28 -22 23 c-30 30 -83 29 -120 -2 -26 -23 -28 -30
-32 -116 -2 -70 0 -95 10 -101 8 -5 87 -9 175 -9 l161 0 7 84 c10 126 -17 176
-94 176 -21 0 -40 -9 -58 -27z m108 -23 c17 -17 20 -33 20 -100 l0 -80 -70 0
-70 0 0 80 c0 91 17 120 70 120 17 0 39 -9 50 -20z m-168 -7 c14 -13 18 -31
18 -95 0 -87 4 -84 -84 -72 l-46 7 0 68 c0 56 4 73 20 89 24 24 67 26 92 3z"/>
<path d="M7440 12820 c0 -152 2 -180 15 -180 12 0 15 25 17 144 l3 145 61
-107 c34 -59 67 -107 74 -107 7 0 40 48 74 107 l61 107 3 -145 c2 -119 5 -144
17 -144 13 0 15 28 15 180 0 151 -2 180 -15 180 -8 0 -44 -53 -82 -120 -37
-66 -70 -120 -73 -120 -4 0 -37 54 -74 120 -37 67 -74 120 -82 120 -12 0 -14
-30 -14 -180z"/>
<path d="M7872 12872 c3 -109 7 -133 25 -162 41 -65 111 -85 185 -52 66 29 81
67 86 220 4 108 3 122 -12 122 -14 0 -16 -14 -16 -92 -1 -51 -5 -113 -9 -138
-17 -83 -96 -124 -170 -86 -43 23 -54 59 -59 194 -3 100 -7 122 -19 122 -13 0
-15 -19 -11 -128z"/>
<path d="M8340 12984 c-71 -31 -103 -81 -103 -160 0 -97 76 -183 163 -184 32
0 110 39 124 62 16 26 -2 34 -27 11 -99 -90 -227 -30 -227 106 0 63 20 105 63
131 55 34 125 21 164 -30 9 -12 14 -12 24 -3 9 10 5 18 -19 41 -46 43 -102 52
-162 26z"/>
<path d="M8600 12820 c0 -153 2 -180 15 -180 12 0 15 16 15 85 l0 85 105 0
105 0 0 -85 c0 -69 3 -85 15 -85 13 0 15 27 15 180 0 153 -2 180 -15 180 -12
0 -15 -16 -15 -80 l0 -80 -105 0 -105 0 0 80 c0 64 -3 80 -15 80 -13 0 -15
-27 -15 -180z"/>
<path d="M9100 12820 c0 -152 2 -180 15 -180 12 0 15 25 17 144 l3 145 61
-107 c34 -59 67 -107 74 -107 7 0 40 48 74 107 l61 107 3 -145 c2 -119 5 -144
17 -144 13 0 15 28 15 180 0 151 -2 180 -15 180 -8 0 -44 -53 -82 -120 -37
-66 -70 -120 -73 -120 -4 0 -37 54 -74 120 -37 67 -74 120 -82 120 -12 0 -14
-30 -14 -180z"/>
<path d="M9614 12981 c-72 -33 -111 -118 -93 -203 13 -57 44 -97 93 -119 53
-24 80 -24 133 2 123 59 125 252 3 316 -52 28 -82 29 -136 4z m126 -28 c118
-69 73 -283 -60 -283 -43 0 -87 25 -110 63 -24 39 -27 125 -5 168 32 62 117
87 175 52z"/>
<path d="M9920 12820 c0 -153 2 -180 15 -180 12 0 15 14 15 65 l0 65 54 0 54
0 41 -65 c23 -36 48 -65 56 -65 21 0 20 1 -25 71 l-40 62 29 18 c64 39 63 150
-3 190 -24 15 -50 19 -113 19 l-83 0 0 -180z m190 130 c27 -27 35 -65 20 -101
-17 -40 -37 -49 -114 -49 l-66 0 0 85 0 85 70 0 c56 0 74 -4 90 -20z"/>
<path d="M10250 12820 l0 -180 115 0 c96 0 115 3 115 15 0 12 -18 15 -100 15
l-100 0 0 70 0 70 85 0 c69 0 85 3 85 15 0 12 -16 15 -85 15 l-85 0 0 65 0 65
100 0 c82 0 100 3 100 15 0 12 -19 15 -115 15 l-115 0 0 -180z"/>
<path d="M16069 12805 c-82 -26 -131 -106 -115 -186 26 -130 214 -175 307 -73
117 127 -21 312 -192 259z m138 -45 c120 -73 68 -240 -75 -240 -90 0 -152 54
-152 132 0 50 18 81 64 109 42 25 121 25 163 -1z"/>
<path d="M1906 12639 c-5 -86 -4 -114 6 -121 7 -4 88 -8 181 -8 l167 0 0 115
c0 96 -3 115 -15 115 -12 0 -15 -18 -15 -100 l0 -100 -70 0 -70 0 0 90 c0 50
-4 90 -9 90 -4 0 -11 -39 -15 -87 -3 -48 -8 -89 -11 -91 -2 -2 -31 -1 -65 3
l-62 7 4 96 c2 63 -1 97 -8 99 -7 2 -13 -34 -18 -108z"/>
<path d="M1902 12445 c2 -12 52 -39 151 -83 81 -36 147 -68 147 -71 0 -7 -139
-61 -156 -61 -6 0 -40 13 -75 29 -60 27 -79 30 -79 12 0 -4 26 -18 58 -31 31
-12 60 -26 65 -30 4 -3 -22 -17 -58 -29 -41 -15 -65 -29 -65 -38 0 -10 6 -13
18 -8 9 4 44 17 77 29 l60 23 80 -37 c52 -24 75 -40 65 -44 -8 -3 -78 -30
-155 -59 -95 -37 -141 -59 -143 -71 -4 -19 -27 -26 220 70 90 34 128 54 128
65 0 10 -30 30 -87 56 l-88 39 90 35 c50 20 91 42 93 50 2 10 -47 37 -164 89
-92 41 -171 77 -176 79 -6 2 -8 -5 -6 -14z"/>
<path d="M15950 12395 c0 -12 14 -15 65 -15 l65 0 0 -54 0 -54 -65 -41 c-36
-23 -65 -48 -65 -56 0 -21 1 -20 72 24 l62 40 17 -29 c20 -33 76 -54 119 -45
16 4 41 20 55 37 23 27 25 38 25 119 l0 89 -175 0 c-149 0 -175 -2 -175 -15z
m330 -79 c0 -73 -21 -110 -69 -121 -33 -7 -85 15 -95 40 -3 9 -6 46 -6 81 l0
64 85 0 85 0 0 -64z"/>
<path d="M16278 12068 l-3 -63 -162 -3 c-136 -2 -163 -5 -163 -17 0 -13 26
-15 165 -15 l165 0 0 -65 c0 -37 4 -65 10 -65 6 0 10 55 10 145 0 85 -4 145
-10 145 -5 0 -10 -28 -12 -62z"/>
<path d="M2835 9100 l-120 -120 82 -82 c45 -45 86 -79 90 -75 4 4 -23 38 -60
75 -37 37 -67 72 -67 78 0 5 20 30 45 54 l45 44 64 -63 c43 -42 66 -59 71 -51
5 7 -16 35 -54 74 l-61 62 43 42 c23 23 47 42 52 42 5 0 40 -30 77 -67 37 -37
71 -64 75 -60 6 7 -144 167 -157 167 -3 0 -59 -54 -125 -120z"/>
<path d="M3046 8881 c-76 -76 -116 -123 -111 -131 5 -8 40 20 106 86 54 54
101 96 103 93 3 -3 -4 -83 -14 -179 -12 -114 -16 -178 -9 -185 13 -13 254 228
244 245 -5 8 -41 -22 -111 -91 -75 -75 -104 -98 -104 -84 0 11 9 94 20 184 18
156 18 181 2 181 -4 0 -61 -54 -126 -119z"/>
<path d="M3417 8753 c-4 -5 12 -27 33 -48 22 -22 40 -44 40 -50 0 -6 -49 -60
-110 -120 -73 -73 -106 -113 -100 -119 7 -7 49 28 125 104 l115 114 45 -44
c24 -24 48 -40 52 -36 4 4 -38 52 -94 108 -55 55 -103 96 -106 91z"/>
<path d="M14545 8536 c-16 -8 -52 -36 -79 -64 l-49 -50 20 -25 c44 -56 211
-227 221 -227 23 0 12 25 -30 67 l-42 42 58 61 c55 58 58 63 53 101 -6 47 -29
76 -74 95 -39 17 -40 17 -78 0z m103 -52 c35 -40 29 -72 -25 -126 -26 -26 -52
-48 -58 -48 -5 0 -32 26 -59 56 l-50 57 53 49 c46 45 56 50 84 44 18 -3 42
-17 55 -32z"/>
<path d="M3545 8390 l-120 -120 82 -82 c45 -45 86 -79 90 -75 4 4 -23 38 -60
75 -37 37 -67 72 -67 78 0 5 20 30 45 54 l45 44 64 -63 c43 -42 66 -59 71 -51
5 7 -16 35 -54 74 l-61 62 43 42 c23 23 47 42 52 42 5 0 40 -30 77 -67 37 -37
71 -64 75 -60 6 7 -144 167 -157 167 -3 0 -59 -54 -125 -120z"/>
<path d="M3756 8181 c-75 -76 -116 -123 -111 -131 5 -8 22 3 54 34 l47 46 39
-40 39 -39 -16 -73 c-13 -58 -14 -76 -4 -86 10 -10 15 -2 25 45 21 96 18 92
56 86 72 -12 125 36 125 112 0 31 -9 46 -62 101 -33 35 -64 64 -67 64 -4 0
-60 -54 -125 -119z m183 34 c40 -43 45 -57 42 -100 -3 -31 -47 -65 -84 -65
-26 0 -43 10 -82 50 l-49 50 54 55 c30 30 60 55 66 55 6 0 30 -20 53 -45z"/>
<path d="M14257 8273 c-3 -5 26 -88 62 -185 50 -132 70 -175 78 -167 9 9 6 26
-9 67 l-20 54 56 56 c62 62 46 60 146 20 21 -9 33 -9 40 -2 8 8 -40 34 -160
87 -173 78 -186 83 -193 70z"/>
<path d="M14091 8116 c-8 -9 -2 -48 19 -136 17 -68 29 -129 28 -136 -2 -8 -42
0 -128 27 -119 37 -150 41 -150 20 0 -13 219 -246 236 -249 31 -7 10 24 -77
116 -50 53 -87 98 -82 99 5 2 60 -12 122 -31 77 -23 114 -30 117 -22 2 6 -9
64 -25 129 -15 64 -25 117 -22 117 3 0 48 -45 100 -101 64 -69 97 -97 104 -90
11 11 -4 28 -159 193 -56 58 -75 74 -83 64z"/>
<path d="M3995 7940 c-81 -81 -116 -123 -109 -130 7 -7 24 5 54 35 l44 45 53
-52 c51 -50 57 -53 104 -53 45 0 54 4 80 33 22 24 29 42 29 73 0 36 -7 48 -62
105 -33 35 -64 64 -67 64 -4 0 -60 -54 -126 -120z m184 35 c50 -54 56 -101 16
-140 -41 -42 -82 -34 -140 25 l-49 50 54 55 c30 30 60 55 66 55 6 0 30 -20 53
-45z"/>
<path d="M4206 7721 c-75 -76 -116 -123 -111 -131 5 -8 22 3 54 34 l47 46 39
-40 39 -39 -16 -73 c-13 -58 -14 -76 -4 -86 10 -10 15 -2 25 45 21 96 18 92
56 86 72 -12 125 36 125 112 0 31 -9 46 -62 101 -33 35 -64 64 -67 64 -4 0
-60 -54 -125 -119z m183 34 c40 -43 45 -57 42 -100 -3 -31 -47 -65 -84 -65
-26 0 -43 10 -82 50 l-49 50 54 55 c30 30 60 55 66 55 6 0 30 -20 53 -45z"/>
<path d="M13710 7750 c-19 -10 -55 -39 -79 -63 l-44 -45 20 -25 c41 -52 210
-227 220 -227 5 0 35 26 66 58 89 95 95 170 19 254 -61 68 -133 85 -202 48z
m129 -25 c39 -20 78 -68 90 -110 14 -51 -2 -94 -54 -145 l-45 -44 -31 30 c-17
16 -63 64 -101 107 l-71 78 29 31 c62 66 124 84 183 53z"/>
<path d="M4613 7485 c-62 -27 -67 -81 -14 -164 41 -64 48 -97 26 -121 -23 -26
-59 -25 -96 1 -30 21 -69 86 -69 114 0 8 -7 15 -15 15 -20 0 -19 -16 4 -65 28
-59 81 -106 129 -112 34 -5 44 -1 66 20 36 36 34 79 -8 147 -49 79 -53 100
-22 129 19 18 31 22 52 17 36 -10 83 -58 90 -95 6 -28 34 -45 34 -21 0 39 -79
140 -110 140 -4 0 -14 2 -22 5 -7 2 -27 -2 -45 -10z"/>
<path d="M13427 7493 c-3 -5 26 -88 62 -185 50 -132 70 -175 78 -167 9 9 6 26
-9 67 l-20 54 56 56 c62 62 46 60 146 20 21 -9 33 -9 40 -2 8 8 -40 34 -160
87 -173 78 -186 83 -193 70z"/>
<path d="M4745 7190 l-120 -120 82 -82 c45 -45 86 -79 90 -75 4 4 -23 38 -60
75 -37 37 -67 72 -67 78 0 5 20 30 45 54 l45 44 64 -63 c43 -42 66 -59 71 -51
5 7 -16 35 -54 74 l-61 62 43 42 c23 23 47 42 52 42 5 0 40 -30 77 -67 37 -37
71 -64 75 -60 6 7 -144 167 -157 167 -3 0 -59 -54 -125 -120z"/>
<path d="M13210 7282 c-97 -48 -109 -194 -24 -274 124 -116 317 -9 274 151
-29 109 -156 171 -250 123z m157 -41 c40 -29 73 -89 73 -132 0 -36 -31 -89
-61 -104 -112 -58 -251 55 -219 176 24 88 127 118 207 60z"/>
<path d="M12955 7051 c-16 -10 -50 -39 -74 -64 l-44 -45 20 -25 c44 -56 211
-227 221 -227 23 0 12 25 -30 67 l-42 43 36 37 37 37 81 -19 c58 -13 84 -15
92 -7 8 8 -1 14 -33 22 -109 28 -107 27 -102 69 7 51 -19 99 -62 117 -45 19
-64 18 -100 -5z m106 -40 c44 -45 40 -79 -18 -135 -27 -25 -52 -46 -58 -46 -5
0 -32 26 -59 56 l-50 57 51 48 c61 58 91 63 134 20z"/>
<path d="M8320 6034 c-71 -31 -103 -81 -103 -160 0 -97 76 -183 163 -184 32 0
110 39 124 62 16 26 -2 34 -27 11 -99 -90 -227 -30 -227 106 0 63 20 105 63
131 55 34 125 21 164 -30 9 -12 14 -12 24 -3 9 10 5 18 -19 41 -46 43 -102 52
-162 26z"/>
<path d="M8590 5870 l0 -180 115 0 c96 0 115 3 115 15 0 12 -18 15 -100 15
l-100 0 0 165 c0 140 -2 165 -15 165 -13 0 -15 -27 -15 -180z"/>
<path d="M8934 6031 c-72 -33 -111 -118 -93 -203 13 -57 44 -97 93 -119 53
-24 80 -24 133 2 123 59 125 252 3 316 -52 28 -82 29 -136 4z m126 -28 c118
-69 73 -283 -60 -283 -43 0 -87 25 -110 63 -24 39 -27 125 -5 168 32 62 117
87 175 52z"/>
<path d="M9232 5922 c3 -109 7 -133 25 -162 41 -65 111 -85 185 -52 66 29 81
67 86 220 4 108 3 122 -12 122 -14 0 -16 -14 -16 -92 -1 -51 -5 -113 -9 -138
-17 -83 -96 -124 -170 -86 -43 23 -54 59 -59 194 -3 100 -7 122 -19 122 -13 0
-15 -19 -11 -128z"/>
<path d="M9610 5870 l0 -182 90 4 c97 4 123 16 164 72 17 22 21 42 21 106 0
64 -4 84 -21 106 -41 56 -67 68 -164 72 l-90 4 0 -182z m187 130 c41 -25 63
-68 63 -125 0 -104 -51 -155 -157 -155 l-63 0 0 150 0 150 63 0 c44 0 71 -6
94 -20z"/>
</g>
</svg>
